<?xml version="1.0" encoding="utf-8"?>
<svg stroke-linecap="round" font-size="12" font-family="Segoe UI" width="278.67960123697924" height="134.9399909449952" xmlns:xlink="http://www.w3.org/1999/xlink" xmlns="http://www.w3.org/2000/svg">
  <defs />
  <g transform="translate(1139,718.813140359058)">
    <g id="P-&gt;Q">
      <path d="M -1069,-685.581294344906 L -1030.7178766979,-685.195646338231" fill="none" stroke="#A0A0A0" stroke-width="1" />
      <path d="M -1021.71833333333,-685.104986373209 L -1031.67753264284,-689.205516718597 C -1030.70444559197,-686.528912021871 -1030.73130780383,-683.862380654591 -1031.75811927842,-681.205922616759 z" fill="#A0A0A0" stroke="#A0A0A0" stroke-width="1" stroke-linejoin="round" />
      <text x="-1053.2337916900572" y="-692.39847034671743" fill="#A0A0A0">h</text>
    </g>
    <g id="Q-&gt;R">
      <path d="M -971.718333333334,-684.853140359058 L -941.718333333333,-684.853140359058" fill="none" stroke="#A0A0A0" stroke-width="1" />
      <path d="M -932.718333333333,-684.853140359058 L -942.718333333333,-688.853140359058 C -941.718333333333,-686.186473692391 -941.718333333333,-683.519807025724 -942.718333333333,-680.853140359058 z" fill="#A0A0A0" stroke="#A0A0A0" stroke-width="1" stroke-linejoin="round" />
      <text x="-958.17166666666685" y="-691.86314035905752" fill="#A0A0A0">i</text>
    </g>
    <g id="Q-&gt;T">
      <path d="M -996.542250941267,-671.873140359058 L -996.094030106348,-638.832321405074" fill="none" stroke="#A0A0A0" stroke-width="1" />
      <path d="M -995.971950311988,-629.833149414063 L -992.107962531939,-639.886487090458 C -994.760819441013,-638.850407300535 -997.427240771683,-638.814235509613 -1000.10722652395,-639.777971717693 z" fill="#A0A0A0" stroke="#A0A0A0" stroke-width="1" stroke-linejoin="round" />
      <text x="-992.31814050687785" y="-650.40985972525709" fill="#A0A0A0">j</text>
    </g>
    <g id="T-&gt;U">
      <path d="M -970.795867919922,-617.129463119724 L -939.31984909868,-617.477353335724" fill="none" stroke="#A0A0A0" stroke-width="1" />
      <path d="M -930.320398763021,-617.57682019457 L -940.363995517685,-621.466057167256 C -939.33458492962,-618.810605237303 -939.305113267739,-616.144101434145 -940.275580532043,-613.466545757781 z" fill="#A0A0A0" stroke="#A0A0A0" stroke-width="1" stroke-linejoin="round" />
      <text x="-956.53329558904443" y="-624.3134082351844" fill="#A0A0A0">l</text>
    </g>
    <g id="S-&gt;T">
      <path d="M -1068.35913085938,-616.868016363068 L -1029.79586773103,-616.860115421969" fill="none" stroke="#A0A0A0" stroke-width="1" />
      <path d="M -1020.79586791992,-616.858271478728 L -1030.79504817971,-620.860320220598 C -1029.79559455425,-618.193448727318 -1029.7961409078,-615.526782116621 -1030.79668724037,-612.860320388506 z" fill="#A0A0A0" stroke="#A0A0A0" stroke-width="1" stroke-linejoin="round" />
      <text x="-1052.0587561967022" y="-623.874065892519" fill="#A0A0A0">k</text>
    </g>
    <g id="P">
      <rect x="-1119" y="-698.81314035905768" rx="3" ry="3" width="50" height="25.96" fill="#FFFFFF" stroke="#A5A6A9" stroke-width="1" />
      <text x="-1109" y="-680.86314035905764" fill="#3D3D3D">p ∈ P</text>
    </g>
    <g id="Q">
      <rect x="-1021.7183333333337" y="-697.83314035905767" rx="3" ry="3" width="50" height="25.96" fill="#FFFFFF" stroke="#A5A6A9" stroke-width="1" />
      <text x="-1001.7183333333337" y="-679.88314035905762" fill="#3D3D3D">Q</text>
    </g>
    <g id="R">
      <rect x="-932.71833333333348" y="-697.83314035905767" rx="3" ry="3" width="50" height="25.96" fill="#FFFFFF" stroke="#A5A6A9" stroke-width="1" />
      <text x="-911.71833333333348" y="-679.88314035905762" fill="#3D3D3D">R</text>
    </g>
    <g id="T">
      <rect x="-1020.7958433024089" y="-629.83314941406252" rx="3" ry="3" width="50" height="25.960000000000036" fill="#FFFFFF" stroke="#A5A6A9" stroke-width="1" />
      <text x="-999.79584330240891" y="-611.88314941406247" fill="#3D3D3D">T</text>
    </g>
    <g id="S">
      <rect x="-1118.3591766357424" y="-629.85314035905765" rx="3" ry="3" width="50" height="25.960000000000036" fill="#FFFFFF" stroke="#A5A6A9" stroke-width="1" />
      <text x="-1097.3591766357424" y="-611.9031403590576" fill="#3D3D3D">S</text>
    </g>
    <g id="U">
      <rect x="-930.32039876302076" y="-630.833133900232" rx="3" ry="3" width="50" height="25.96" fill="#FFFFFF" stroke="#A5A6A9" stroke-width="1" />
      <text x="-910.32039876302076" y="-612.883133900232" fill="#3D3D3D">U</text>
    </g>
  </g>
</svg>