<?xml version="1.0" encoding="utf-8"?>
<svg stroke-linecap="round" font-size="12" font-family="Segoe UI" width="278.679601236979" height="134.93999094499509" xmlns:xlink="http://www.w3.org/1999/xlink" xmlns="http://www.w3.org/2000/svg">
  <defs />
  <g transform="translate(1139,718.813140359058)">
    <g id="P-&gt;Q">
      <path d="M -1069,-685.581294344907 L -1030.7178766979,-685.195646338231" fill="none" stroke="#A0A0A0" stroke-width="1" />
      <path d="M -1021.71833333333,-685.104986373209 L -1031.67753264284,-689.205516718597 C -1030.70444559197,-686.528912021871 -1030.73130780383,-683.862380654592 -1031.75811927842,-681.205922616759 z" fill="#A0A0A0" stroke="#A0A0A0" stroke-width="1" stroke-linejoin="round" />
      <text x="-1053.2337916900551" y="-692.39847034671777" fill="#A0A0A0">h</text>
    </g>
    <g id="Q-&gt;R">
      <path d="M -971.71833333333,-684.853140359058 L -941.718333333333,-684.853140359058" fill="none" stroke="#A0A0A0" stroke-width="1" />
      <path d="M -932.718333333333,-684.853140359058 L -942.718333333333,-688.853140359058 C -941.718333333333,-686.186473692391 -941.718333333333,-683.519807025725 -942.718333333333,-680.853140359058 z" fill="#A0A0A0" stroke="#A0A0A0" stroke-width="1" stroke-linejoin="round" />
      <text x="-958.17166666666481" y="-691.863140359058" fill="#A0A0A0">i</text>
    </g>
    <g id="Q-&gt;T">
      <path d="M -996.542246242215,-671.873140359058 L -996.094013445186,-638.832321360887" fill="none" stroke="#A0A0A0" stroke-width="1" />
      <path d="M -995.971930393525,-629.833149414063 L -992.107946252338,-639.88648848905 C -994.760802786397,-638.85040773891 -997.427224103974,-638.814234982863 -1000.10721020507,-639.777970220907 z" fill="#A0A0A0" stroke="#A0A0A0" stroke-width="1" stroke-linejoin="round" />
      <text x="-992.31812982676877" y="-650.40986042700808" fill="#A0A0A0">j</text>
    </g>
    <g id="S-&gt;T">
      <path d="M -1068.35917663574,-616.868017803198 L -1029.79584311348,-616.860116089994" fill="none" stroke="#A0A0A0" stroke-width="1" />
      <path d="M -1020.79584330241,-616.858271969923 L -1030.79502348357,-620.860320908254 C -1029.7955699105,-618.193449395337 -1029.79611631645,-615.52678278465 -1030.79666270141,-612.860321076194 z" fill="#A0A0A0" stroke="#A0A0A0" stroke-width="1" stroke-linejoin="round" />
      <text x="-1052.0587667368156" y="-623.8740669465958" fill="#A0A0A0">k</text>
    </g>
    <g id="T-&gt;U">
      <path d="M -970.79584330241,-617.129463194907 L -939.319849098381,-617.477353233481" fill="none" stroke="#A0A0A0" stroke-width="1" />
      <path d="M -930.320398763021,-617.576820119388 L -940.36399552938,-621.466057061873 C -939.33458493333,-618.810605135016 -939.305113263432,-616.144101331946 -940.275580519684,-613.466545652664 z" fill="#A0A0A0" stroke="#A0A0A0" stroke-width="1" stroke-linejoin="round" />
      <text x="-956.53328328615271" y="-624.31340822165453" fill="#A0A0A0">l</text>
    </g>
    <g id="P">
      <rect x="-1119" y="-698.813140359058" rx="3" ry="3" width="50" height="25.96" fill="#FFFFFF" stroke="#A5A6A9" stroke-width="1" />
      <text x="-1098" y="-680.863140359058" fill="#3D3D3D">P</text>
    </g>
    <g id="Q">
      <rect x="-1021.71833333333" y="-697.833140359058" rx="3" ry="3" width="50" height="25.96" fill="#FFFFFF" stroke="#A5A6A9" stroke-width="1" />
      <text x="-1001.71833333333" y="-679.883140359058" fill="#3D3D3D">Q</text>
    </g>
    <g id="R">
      <rect x="-932.718333333333" y="-697.833140359058" rx="3" ry="3" width="50" height="25.96" fill="#FFFFFF" stroke="#A5A6A9" stroke-width="1" />
      <text x="-911.718333333333" y="-679.883140359058" fill="#3D3D3D">R</text>
    </g>
    <g id="S">
      <rect x="-1118.35917663574" y="-629.853140359058" rx="3" ry="3" width="50" height="25.96" fill="#FFFFFF" stroke="#A5A6A9" stroke-width="1" />
      <text x="-1097.35917663574" y="-611.90314035905794" fill="#3D3D3D">S</text>
    </g>
    <g id="T">
      <rect x="-1020.79584330241" y="-629.833149414063" rx="3" ry="3" width="50" height="25.96" fill="#FFFFFF" stroke="#A5A6A9" stroke-width="1" />
      <text x="-999.79584330241" y="-611.88314941406293" fill="#3D3D3D">T</text>
    </g>
    <g id="U">
      <rect x="-930.320398763021" y="-630.833133900232" rx="3" ry="3" width="50" height="25.96" fill="#FFFFFF" stroke="#A5A6A9" stroke-width="1" />
      <text x="-910.320398763021" y="-612.883133900232" fill="#3D3D3D">U</text>
    </g>
  </g>
</svg>